<svg width="75" height="65" viewBox="0 0 75 65" fill="none" xmlns="http://www.w3.org/2000/svg">
<path d="M67.1667 0.166672H15.25C11.1597 0.166672 7.83333 3.79205 7.83333 8.25001V28.4583H15.25V16.3333L38.9833 35.7333C39.6434 36.2709 40.4259 36.5417 41.2083 36.5417C41.9908 36.5417 42.7732 36.2709 43.4333 35.7333L67.1667 16.3333V52.7083H37.5V60.7917H67.1667C71.257 60.7917 74.5833 57.1663 74.5833 52.7083V8.25001C74.5833 3.79205 71.257 0.166672 67.1667 0.166672ZM41.2083 27.4479L17.7197 8.25001H64.6969L41.2083 27.4479Z" fill="#FFCC18"/>
<path d="M0.416672 32.5H26.375V40.5833H0.416672V32.5ZM7.83334 44.625H30.0833V52.7083H7.83334V44.625ZM18.9583 56.75H33.7917V64.8333H18.9583V56.75Z" fill="#FFCC18"/>
</svg>
