<svg width="82" height="86" viewBox="0 0 82 86" fill="none" xmlns="http://www.w3.org/2000/svg">
<path d="M41 0C28.5935 0 18.5 10.0935 18.5 22.5C18.5 34.9065 28.5935 45 41 45C53.4065 45 63.5 34.9065 63.5 22.5C63.5 10.0935 53.4065 0 41 0ZM41 36C33.557 36 27.5 29.943 27.5 22.5C27.5 15.057 33.557 9 41 9C48.443 9 54.5 15.057 54.5 22.5C54.5 29.943 48.443 36 41 36ZM81.5 85.5V81C81.5 63.6345 67.3655 49.5 50 49.5H32C14.63 49.5 0.5 63.6345 0.5 81V85.5H9.5V81C9.5 68.5935 19.5935 58.5 32 58.5H50C62.4065 58.5 72.5 68.5935 72.5 81V85.5H81.5Z" fill="#FFCC18"/>
</svg>
