<svg width="60" height="84" viewBox="0 0 60 84" fill="none" xmlns="http://www.w3.org/2000/svg">
<path d="M51.4896 0.333334H9.40625C4.76446 0.333334 0.989584 4.07083 0.989584 8.66667V75.3333C0.989584 79.9292 4.76446 83.6667 9.40625 83.6667H51.4896C56.1314 83.6667 59.9062 79.9292 59.9062 75.3333V8.66667C59.9062 4.07083 56.1314 0.333334 51.4896 0.333334ZM9.40625 75.3333V8.66667H51.4896L51.498 75.3333H9.40625Z" fill="#FFCC18"/>
<path d="M30.4479 71.1667C32.7721 71.1667 34.6562 69.3012 34.6562 67C34.6562 64.6988 32.7721 62.8333 30.4479 62.8333C28.1237 62.8333 26.2396 64.6988 26.2396 67C26.2396 69.3012 28.1237 71.1667 30.4479 71.1667Z" fill="#FFCC18"/>
</svg>
