<svg width="123" height="92" viewBox="0 0 123 92" fill="none" xmlns="http://www.w3.org/2000/svg">
<path d="M104.55 24.5333H92.25V42.9333H73.8V55.2H92.25V73.6H104.55V55.2H123V42.9333H104.55V24.5333ZM12.3 24.5333C12.3 38.5173 22.878 49.0667 36.9 49.0667C50.922 49.0667 61.5 38.5173 61.5 24.5333C61.5 10.5493 50.922 0 36.9 0C22.878 0 12.3 10.5493 12.3 24.5333ZM49.2 24.5333C49.2 31.7584 44.1447 36.8 36.9 36.8C29.6553 36.8 24.6 31.7584 24.6 24.5333C24.6 17.3083 29.6553 12.2667 36.9 12.2667C44.1447 12.2667 49.2 17.3083 49.2 24.5333ZM12.3 85.8667C12.3 75.7221 20.5779 67.4667 30.75 67.4667H43.05C53.2221 67.4667 61.5 75.7221 61.5 85.8667V92H73.8V85.8667C73.8 68.9571 60.0056 55.2 43.05 55.2H30.75C13.7945 55.2 0 68.9571 0 85.8667V92H12.3V85.8667Z" fill="#FFCC18"/>
</svg>
