<svg width="143" height="117" viewBox="0 0 143 117" fill="none" xmlns="http://www.w3.org/2000/svg">
<path d="M102.75 114.75V102.25C102.75 95.6196 100.116 89.2607 95.4277 84.5723C90.7393 79.8839 84.3804 77.25 77.75 77.25H27.75C21.1196 77.25 14.7607 79.8839 10.0723 84.5723C5.38392 89.2607 2.75 95.6196 2.75 102.25V114.75" stroke="#FFCC18" stroke-width="4" stroke-linecap="round" stroke-linejoin="round"/>
<path d="M52.75 52.25C66.5571 52.25 77.75 41.0571 77.75 27.25C77.75 13.4429 66.5571 2.25 52.75 2.25C38.9429 2.25 27.75 13.4429 27.75 27.25C27.75 41.0571 38.9429 52.25 52.75 52.25Z" stroke="#FFCC18" stroke-width="4" stroke-linecap="round" stroke-linejoin="round"/>
<path d="M140.25 114.75V102.25C140.246 96.7108 138.402 91.3298 135.009 86.952C131.615 82.5741 126.863 79.4473 121.5 78.0625" stroke="#FFCC18" stroke-width="4" stroke-linecap="round" stroke-linejoin="round"/>
<path d="M96.5 3.0625C101.878 4.43938 106.644 7.56688 110.048 11.9519C113.452 16.337 115.299 21.7302 115.299 27.2812C115.299 32.8323 113.452 38.2255 110.048 42.6106C106.644 46.9956 101.878 50.1231 96.5 51.5" stroke="#FFCC18" stroke-width="4" stroke-linecap="round" stroke-linejoin="round"/>
</svg>
